<svg id="Layer_1" data-name="Layer 1" xmlns="http://www.w3.org/2000/svg" viewBox="0 0 122.12 129.02"><defs><style>.cls-1{fill:#fff;}.cls-1,.cls-2{stroke:#000;stroke-miterlimit:10;stroke-width:2px;}.cls-2{fill:none;}</style></defs><title>connections</title><circle class="cls-1" cx="71.41" cy="48.13" r="19.5"/><line class="cls-2" x1="87.8" y1="37.68" x2="104.56" y2="21.44"/><circle class="cls-1" cx="107.65" cy="18.45" r="13.47"/><line class="cls-2" x1="61.06" y1="31.92" x2="50.41" y2="17.57"/><circle class="cls-1" cx="45.71" cy="11.24" r="10.24"/><line class="cls-2" x1="22.21" y1="48.13" x2="51.91" y2="48.13"/><circle class="cls-1" cx="16.87" cy="48.13" r="15.87"/><line class="cls-2" x1="71.41" y1="67.63" x2="71.41" y2="93.1"/><circle class="cls-1" cx="71.41" cy="109.02" r="19"/><circle class="cls-1" cx="71.41" cy="39.64" r="4.52"/><path class="cls-1" d="M70.32,44.16H72.5a7.12,7.12,0,0,1,7.12,7.12v7.54a0,0,0,0,1,0,0H63.19a0,0,0,0,1,0,0V51.28a7.12,7.12,0,0,1,7.12-7.12Z"/><circle class="cls-1" cx="71.41" cy="102.19" r="4.21"/><path class="cls-1" d="M70.88,106.4h1.07a7.12,7.12,0,0,1,7.12,7.12v6.54a0,0,0,0,1,0,0H63.75a0,0,0,0,1,0,0v-6.54A7.12,7.12,0,0,1,70.88,106.4Z"/><circle class="cls-1" cx="107.65" cy="12.02" r="2.83"/><path class="cls-1" d="M107.65,14.85h0A5.15,5.15,0,0,1,112.79,20v4a0,0,0,0,1,0,0H102.5a0,0,0,0,1,0,0V20a5.15,5.15,0,0,1,5.15-5.15Z"/><circle class="cls-1" cx="16.87" cy="40.98" r="3.79"/><path class="cls-1" d="M16.35,44.77h1a6.37,6.37,0,0,1,6.37,6.37v5.92a0,0,0,0,1,0,0H10a0,0,0,0,1,0,0V51.14A6.37,6.37,0,0,1,16.35,44.77Z"/><circle class="cls-1" cx="45.71" cy="6.79" r="2.12"/><path class="cls-1" d="M45.71,8.91h0a3.86,3.86,0,0,1,3.86,3.86v3a0,0,0,0,1,0,0H41.85a0,0,0,0,1,0,0v-3A3.86,3.86,0,0,1,45.71,8.91Z"/></svg>