<?xml version="1.0" encoding="utf-8"?>
<!-- Generator: Adobe Illustrator 21.0.2, SVG Export Plug-In . SVG Version: 6.00 Build 0)  -->
<svg version="1.1" id="Instagram_w_circle" xmlns="http://www.w3.org/2000/svg" xmlns:xlink="http://www.w3.org/1999/xlink" x="0px"
	 y="0px" viewBox="0 0 21.8 21.2" style="enable-background:new 0 0 21.8 21.2;" xml:space="preserve">
<style type="text/css">
	.st0{fill:#212121;stroke:#000000;stroke-width:0.5;stroke-miterlimit:10;}
	.st1{fill:#FFFFFF;stroke:#212121;stroke-width:0.5;stroke-miterlimit:10;}
</style>
<rect x="5.1" y="4.4" class="st0" width="11.7" height="12.5"/>
<title>instagram-with-circle</title>
<path class="st1" d="M14.5,7.9C14.3,7.5,14,7.1,13.6,7c-0.3-0.1-0.6-0.2-0.9-0.2c-0.5,0-0.7,0-2,0s-1.5,0-2,0C8.4,6.8,8.1,6.9,7.8,7
	C7.2,7.1,6.9,7.4,6.7,7.9C6.6,8.1,6.5,8.5,6.5,8.8c0,0.5,0,0.7,0,2s0,1.5,0,2c0,0.3,0.1,0.6,0.2,0.9c0.2,0.4,0.5,0.8,0.9,0.9
	c0.3,0.1,0.6,0.2,0.9,0.2c0.5,0,0.7,0,2,0s1.5,0,2,0c0.3,0,0.6-0.1,0.9-0.2c0.4-0.2,0.8-0.5,0.9-0.9c0.1-0.3,0.2-0.6,0.2-0.9
	c0-0.5,0-0.7,0-2s0-1.5,0-2C14.7,8.5,14.6,8.1,14.5,7.9z M10.6,13.4c-1.4,0-2.6-1.2-2.6-2.6s1.2-2.6,2.6-2.6s2.6,1.1,2.6,2.6l0,0
	C13.2,12.2,12,13.4,10.6,13.4L10.6,13.4z M13.3,8.7c-0.3,0-0.6-0.3-0.6-0.6c0-0.3,0.3-0.6,0.6-0.6s0.6,0.3,0.6,0.6
	C13.9,8.4,13.6,8.7,13.3,8.7L13.3,8.7z"/>
<circle class="st1" cx="10.6" cy="10.8" r="1.7"/>
<path class="st1" d="M10.6,1.2C5.3,1.2,1,5.5,1,10.8s4.3,9.6,9.6,9.6s9.6-4.3,9.6-9.6l0,0C20.2,5.5,15.9,1.2,10.6,1.2L10.6,1.2z
	 M15.6,12.9c0,0.4-0.1,0.8-0.2,1.2c-0.3,0.7-0.8,1.2-1.5,1.5c-0.4,0.1-0.8,0.2-1.2,0.2c-0.5,0-0.7,0-2.1,0s-1.5,0-2.1,0
	c-0.4,0-0.8-0.1-1.2-0.2c-0.7-0.3-1.2-0.8-1.5-1.5c-0.1-0.4-0.2-0.8-0.2-1.2c0-0.5,0-0.7,0-2.1s0-1.5,0-2.1c0-0.4,0.1-0.8,0.2-1.2
	C6.1,6.8,6.6,6.3,7.3,6c0.4-0.1,0.8-0.2,1.2-0.2c0.5,0,0.7,0,2.1,0s1.5,0,2.1,0c0.4,0,0.8,0.1,1.2,0.2c0.7,0.3,1.2,0.8,1.5,1.5
	c0.1,0.4,0.2,0.8,0.2,1.2c0,0.5,0,0.7,0,2.1S15.6,12.3,15.6,12.9L15.6,12.9z"/>
</svg>
