<?xml version="1.0" encoding="utf-8"?>
<!-- Generator: Adobe Illustrator 21.0.2, SVG Export Plug-In . SVG Version: 6.00 Build 0)  -->
<svg version="1.1" id="Medium_w_x2F__circle" xmlns="http://www.w3.org/2000/svg" xmlns:xlink="http://www.w3.org/1999/xlink"
	 x="0px" y="0px" viewBox="0 0 20 20" style="enable-background:new 0 0 20 20;" xml:space="preserve">
<style type="text/css">
	.st0{fill:#212121;}
	.st1{fill:#FFFFFF;stroke:#212121;stroke-width:0.5;stroke-miterlimit:10;}
</style>
<rect x="3.7" y="5.5" class="st0" width="12.3" height="9.8"/>
<path class="st1" d="M10,0.4c-5.3,0-9.6,4.3-9.6,9.6s4.3,9.6,9.6,9.6s9.6-4.3,9.6-9.6S15.3,0.4,10,0.4z M14.2,7.7h-0.1
	c0,0-0.4,0-0.4,0.4c0,0.4,0,4,0,4s0,0.3,0.4,0.3h0.1v0.9h-2.8v-0.9h0.5V8h0l-1.4,5.3H9.1L7.7,8h0v4.3h0.5v0.9H5.8v-0.9h0.1
	c0,0,0.4,0,0.4-0.4s0-4,0-4s0-0.3-0.4-0.3H5.8V6.7h3.1l1.1,4h0l1.1-4h3.1V7.7z"/>
</svg>
