<?xml version="1.0" encoding="utf-8"?>
<!-- Generator: Adobe Illustrator 21.0.2, SVG Export Plug-In . SVG Version: 6.00 Build 0)  -->
<svg version="1.1" id="圖層_1" xmlns="http://www.w3.org/2000/svg" xmlns:xlink="http://www.w3.org/1999/xlink" x="0px" y="0px"
	 viewBox="0 0 132 108.7" style="enable-background:new 0 0 132 108.7;" xml:space="preserve">
<style type="text/css">
	.st0{opacity:0.59;stroke:#212121;stroke-miterlimit:10;enable-background:new    ;}
	.st1{fill:#FFFFFF;}
</style>
<path class="st0" d="M73.3,100.3L73.3,100.3c-26,0-47-21-47-47l0,0c0-26,21-47,47-47l0,0c26,0,47,21,47,47l0,0
	C120.3,79.3,99.3,100.3,73.3,100.3z"/>
<g>
	<g>
		<g>
			<polygon class="st1" points="93.4,46.3 90.2,49.5 73.3,32.5 56.4,49.5 53.2,46.3 73.3,26.2 			"/>
		</g>
	</g>
	<g>
		<g>
			<polygon class="st1" points="93.4,69.2 90.2,72.4 73.3,55.5 56.4,72.4 53.2,69.2 73.3,49.1 			"/>
		</g>
	</g>
</g>
</svg>
