<?xml version="1.0" encoding="utf-8"?>
<!-- Generator: Adobe Illustrator 21.0.2, SVG Export Plug-In . SVG Version: 6.00 Build 0)  -->
<svg version="1.1" id="Layer_1" xmlns="http://www.w3.org/2000/svg" xmlns:xlink="http://www.w3.org/1999/xlink" x="0px" y="0px"
	 viewBox="0 0 121 123" style="enable-background:new 0 0 121 123;" xml:space="preserve">
<style type="text/css">
	.st0{fill:none;stroke:#000000;stroke-width:5;stroke-miterlimit:10;}
</style>
<g>
	<path d="M78.8,98H64.7c-1.2,0-2.1-1-2.1-2.2V71.1L48.8,53.8c-0.3-0.4-0.5-0.9-0.5-1.3V29.2h-9.9v22.6L52.1,69
		c0.3,0.4,0.5,0.9,0.5,1.3v25.5c0,1.2-1,2.2-2.1,2.2H36.3c-1.2,0-2.1-1-2.1-2.2V65.3l4.3,5v23.3h9.9V71.1L34.6,53.8
		c-0.3-0.4-0.5-0.9-0.5-1.3V27c0-1.2,1-2.2,2.1-2.2h14.2c1.2,0,2.1,1,2.1,2.2v24.7l13.7,17.2c0.3,0.4,0.5,0.9,0.5,1.3v23.3h10V71.1
		L63,53.8c-0.3-0.4-0.5-0.9-0.5-1.3V27c0-1.2,1-2.2,2.1-2.2h14.2c1.2,0,2.1,1,2.1,2.2v30.6l-4.3-5V29.2h-9.9v22.6L80.4,69
		c0.3,0.4,0.5,0.9,0.5,1.3v25.5C81,97,80,98,78.8,98z"/>
</g>
<rect x="3.2" y="7.1" class="st0" width="108.7" height="108.7"/>
</svg>
