<?xml version="1.0" encoding="utf-8"?>
<!-- Generator: Adobe Illustrator 20.0.0, SVG Export Plug-In . SVG Version: 6.00 Build 0)  -->
<svg version="1.1" id="Layer_1" xmlns="http://www.w3.org/2000/svg" xmlns:xlink="http://www.w3.org/1999/xlink" x="0px" y="0px"
	 viewBox="0 0 105 123" style="enable-background:new 0 0 105 123;" xml:space="preserve">
<style type="text/css">
	.st0{fill:#FFFFFF;}
</style>
<g>
	<path class="st0" d="M75.1,99.7H61c-1.2,0-2.1-1-2.1-2.2V72.8L45.1,55.5c-0.3-0.4-0.5-0.9-0.5-1.3V30.9h-9.9v22.6l13.7,17.2
		c0.3,0.4,0.5,0.9,0.5,1.3v25.5c0,1.2-1,2.2-2.1,2.2H32.6c-1.2,0-2.1-1-2.1-2.2V67l4.3,5v23.3h9.9V72.8L30.9,55.5
		c-0.3-0.4-0.5-0.9-0.5-1.3V28.7c0-1.2,1-2.2,2.1-2.2h14.2c1.2,0,2.1,1,2.1,2.2v24.7l13.7,17.2c0.3,0.4,0.5,0.9,0.5,1.3v23.3h10
		V72.8L59.3,55.5c-0.3-0.4-0.5-0.9-0.5-1.3V28.7c0-1.2,1-2.2,2.1-2.2h14.2c1.2,0,2.1,1,2.1,2.2v30.6l-4.3-5V30.9H63v22.6l13.7,17.2
		c0.3,0.4,0.5,0.9,0.5,1.3v25.5C77.3,98.7,76.3,99.7,75.1,99.7z"/>
</g>
</svg>
