<?xml version="1.0" encoding="utf-8"?>
<!-- Generator: Adobe Illustrator 21.0.2, SVG Export Plug-In . SVG Version: 6.00 Build 0)  -->
<svg version="1.1" id="Layer_1" xmlns="http://www.w3.org/2000/svg" xmlns:xlink="http://www.w3.org/1999/xlink" x="0px" y="0px"
	 viewBox="0 0 105 123" style="enable-background:new 0 0 105 123;" xml:space="preserve">
<g>
	<path d="M74,98.1H59.9c-1.2,0-2.1-1-2.1-2.2V71.2L44,53.9c-0.3-0.4-0.5-0.9-0.5-1.3V29.3h-9.9v22.6l13.7,17.2
		c0.3,0.4,0.5,0.9,0.5,1.3v25.5c0,1.2-1,2.2-2.1,2.2H31.5c-1.2,0-2.1-1-2.1-2.2V65.4l4.3,5v23.3h9.9V71.2L29.8,53.9
		c-0.3-0.4-0.5-0.9-0.5-1.3V27.1c0-1.2,1-2.2,2.1-2.2h14.2c1.2,0,2.1,1,2.1,2.2v24.7L61.4,69c0.3,0.4,0.5,0.9,0.5,1.3v23.3h10V71.2
		L58.2,53.9c-0.3-0.4-0.5-0.9-0.5-1.3V27.1c0-1.2,1-2.2,2.1-2.2H74c1.2,0,2.1,1,2.1,2.2v30.6l-4.3-5V29.3h-9.9v22.6l13.7,17.2
		c0.3,0.4,0.5,0.9,0.5,1.3v25.5C76.2,97.1,75.2,98.1,74,98.1z"/>
</g>
</svg>
