<svg id="圖層_2" data-name="圖層 2" xmlns="http://www.w3.org/2000/svg" viewBox="0 0 285.67 735.49"><defs><style>.cls-1{fill:none;stroke:#000;stroke-miterlimit:10;stroke-width:12px;}</style></defs><title>shaker</title><path class="cls-1" d="M820.94,565.9c31.58,240.06-17.39,520-17.39,520a7,7,0,0,1-6.65,5.59l-169.84,0a7.36,7.36,0,0,1-6.86-5.54S560.5,809.14,570.49,574.69" transform="translate(-551.89 -362.07)"/><path class="cls-1" d="M835.71,572.8l-283.62.12c40.39-1.38,54.43-116.63,54.43-116.63s.67-13.9,27.65-13.64l124,.08S782.94,441.19,787,464C804.35,562,835,572.67,835,572.67" transform="translate(-551.89 -362.07)"/><path class="cls-1" d="M651.56,441.1l1.9-37.77,1-19.31s.35-15.9,15.73-15.73l56.8-.21s15.69-.14,16.76,18.66,1.79,54.18,1.79,54.18" transform="translate(-551.89 -362.07)"/><line class="cls-1" x1="100.03" y1="43.79" x2="191.8" y2="43.36"/><path class="cls-1" d="M602.92,684.36c4,73.67,10,172.31,15.28,202.7" transform="translate(-551.89 -362.07)"/><path class="cls-1" d="M601.19,596.77s.65,18.89,1.77,47.16" transform="translate(-551.89 -362.07)"/></svg>