<svg id="Layer_1" data-name="Layer 1" xmlns="http://www.w3.org/2000/svg" viewBox="0 0 66.57 106.94"><defs><style>.cls-1{font-size:13.53px;fill:#231f20;font-family:OstrichSans-Medium, Ostrich Sans;letter-spacing:0.2em;}</style></defs><title>spenserhuang-logo-black</title><path d="M75.59,104.92H61.42a2.15,2.15,0,0,1-2.15-2.15V78L45.57,60.79a2.15,2.15,0,0,1-.47-1.34V36.12H35.22V58.7L48.93,75.95a2.15,2.15,0,0,1,.47,1.34v25.48a2.15,2.15,0,0,1-2.15,2.15H33.07a2.15,2.15,0,0,1-2.15-2.15V72.25l4.3,5v23.33H45.1V78L31.39,60.79a2.15,2.15,0,0,1-.47-1.34V34a2.15,2.15,0,0,1,2.15-2.15H47.25A2.15,2.15,0,0,1,49.4,34V58.7L63.1,75.95a2.15,2.15,0,0,1,.47,1.34v23.33h9.87V78L59.74,60.79a2.15,2.15,0,0,1-.47-1.34V34a2.15,2.15,0,0,1,2.15-2.15H75.59A2.15,2.15,0,0,1,77.74,34V64.58l-4.3-5V36.12H63.57V58.7L77.28,75.95a2.15,2.15,0,0,1,.47,1.34v25.48A2.15,2.15,0,0,1,75.59,104.92Z" transform="translate(-22.72 -31.82)"/><text class="cls-1" transform="translate(0 90) scale(1.31 1)">SPENSER<tspan x="6.39" y="14.66">HUANG</tspan></text><text x="-22.72" y="-31.82"></text></svg>