<svg id="圖層_2" data-name="圖層 2" xmlns="http://www.w3.org/2000/svg" viewBox="0 0 464.63 1169.82"><defs><style>.cls-1,.cls-2{fill:none;stroke-miterlimit:10;stroke-width:18px;}.cls-1{stroke:#231916;}.cls-2{stroke:#000;}.cls-3{fill:#231916;}</style></defs><title>startup</title><path class="cls-1" d="M620.31,1095.82s-50.47-64.61,28.45-114.8c0,0,113.48-69.55,167.92,64.8,0,0,27.87,71.65-25.16,136.18,0,0,8.49-49.38-18.65-55.07,0,0-15.64-3.45-12.46,34.38,0,0,12.91,83.91-43.31,104.3,0,0-12.08,4.18-20,5.18,0,0,17.56-9.61,19.42-58,0,0,2.62-44.11-17.68-49.14,0,0-22.42-5.51-18.65,44,0,0-33.65-24.22-38.36-58.16,0,0-5.66-33.12,4.86-58,0,0,10.72-27.07-7.67-32.2,0,0-9.15-3.31-13.55,13.55Z" transform="translate(-481.21 -115.83)"/><path class="cls-1" d="M820,286.41h-2c-3.12,0-8.22,0-11.34,0l-197.26.08a11.27,11.27,0,0,0-8.63,4.84S510.21,439.5,566.54,737l-72.92,84.19a16.17,16.17,0,0,0-3.4,9.95L501,1025.67a6.23,6.23,0,0,0,6,5.77l50.31,1a7.47,7.47,0,0,0,7-5.39l28.38-114.15a12.45,12.45,0,0,1,6.64-7.6l1.6-.64a5.18,5.18,0,0,1,7,3.32l6.76,21.7a8.19,8.19,0,0,0,7.36,5.4l181.11-.33a8.55,8.55,0,0,0,7.52-5.37l7.5-21.71a5.22,5.22,0,0,1,7.06-3.13l1.48.63a12.86,12.86,0,0,1,6.57,7.73l28,113.26a7.74,7.74,0,0,0,7,5.57l47.71.57a6.14,6.14,0,0,0,6.1-5.59l14.7-193.75a15.65,15.65,0,0,0-3.29-9.93l-71.94-82.83a12.22,12.22,0,0,1-2.33-9.78S921.86,482,824.95,292C824.95,292,822.25,286.48,820,286.41ZM753.4,513.1a56.92,56.92,0,1,1,0-80.49A56.92,56.92,0,0,1,753.4,513.1Z" transform="translate(-481.21 -115.83)"/><path class="cls-2" d="M809.44,260.25c-35.71-63.64-94-133.31-94-133.31s-3-4.9-7.17.26-70.53,89.05-93.65,134c0,0,188.05-1.22,194.77-.93" transform="translate(-481.21 -115.83)"/><polygon class="cls-3" points="334.49 137.6 344.37 153.39 324.6 153.39 334.49 137.6"/><rect class="cls-3" x="323.47" y="142.14" width="9.5" height="8.28"/></svg>